<?xml version="1.0"?><svg width="457.867" height="588.365" xmlns="http://www.w3.org/2000/svg">

 <g>
  <title>Layer 1</title>
  <g id="svg_1">
   <path id="svg_2" d="m382.580994,23.688c-0.868011,3.069 -4.324005,5.555 -7,7c-3.425995,1.851002 -7.494995,1.743999 -11,3c-3.210999,1.151001 -6.479004,4.082001 -10,5c-2.838989,0.740002 -7.125,0.153999 -11,1c-5.51001,1.202999 -10.901001,4.369999 -20,3c-1.97699,-3.355999 -5.048004,-5.618999 -7,-9c-9.070007,-1.07 -11.602997,4.396999 -20,4c-2.019012,-7.351999 4.571991,-6.094999 10,-6c5.484009,-2.322001 12.395996,-3.500999 19,-6c2.100006,-0.794001 3.380981,-2.535 5,-3c3.246002,-0.933001 7.825989,0.094 11,-1c1.843994,-0.635 3.306,-2.629 5,-3c4.695984,-1.027 13.263,-1.865999 20,-2c6.118011,-0.122 15.156006,-0.906 16,7z" fill="#FFFFFF" clip-rule="evenodd" fill-rule="evenodd"/>
   <path id="svg_3" d="m230.580994,34.688c-1.677002,4.269001 -8.016998,5.75 -9,11c-1.104004,5.894001 2.703995,9.034 4,15c9.099991,8.566998 15.112991,20.219997 25,28.000004c-22.796005,2.793999 -27.608002,-21.056 -43,-29.000004c-0.777008,-0.889999 -1.074997,-2.257999 -1,-4c-8.473999,-3.859001 -13.436996,-11.23 -20,-17c6.634003,-6.056 17.091003,-1.516998 27,-2c5.628006,-0.273998 10.776001,-1.875 17,-2z" fill="#FFFFFF" clip-rule="evenodd" fill-rule="evenodd"/>
   <path id="svg_4" d="m261.580994,39.688c-0.591003,4.591 0.311005,7.688999 2,10c-6.843018,2.98 -22.596008,4.911999 -30,1c8.489014,-8.407001 15.714005,-12.004002 28,-11z" fill="#FFFFFF" clip-rule="evenodd" fill-rule="evenodd"/>
   <path id="svg_5" d="m305.580994,47.688c-2.104004,2.896 -1.679993,8.32 -6,9c-0.994019,11.673 -10.970001,14.363003 -11,27.000004c5.51001,0.509995 8.356995,-1.643005 8,-7c8.402008,-6.264 7.882996,-21.451004 17,-27.000004c14.876007,4.526001 32.016998,1.816002 47,-1c-12.476013,13.525002 -25.433014,26.566998 -38,40.000004c-19.181,6.800995 -37.834991,5.727997 -62,4c-0.597015,-14.070007 -11.438004,-17.895004 -18,-26c18.723999,-2.276001 37.229004,-4.771004 48,-15.000004c4.802002,0.135002 9.097992,-0.235001 10,-4c1.666992,0 3.333008,0 5,0z" fill="#FFFFFF" clip-rule="evenodd" fill-rule="evenodd"/>
   <path id="svg_6" d="m406.580994,76.688004c-2.88501,6.627998 -12.751007,6.125 -20,8c-3.115997,0.806 -6.222015,1.163994 -10,2c-5.207001,1.151993 -16.166992,4.042 -25,1c12.162018,-9.198006 36.682007,-11.282005 55,-11z" fill="#FFFFFF" clip-rule="evenodd" fill-rule="evenodd"/>
   <path id="svg_7" d="m113.581001,127.688004c1,0 2,0 3,0c1.101997,4.237991 1.181999,8.306992 0,12c0.755997,2.177002 3.931999,7.037994 0,8c-5.019005,-3.221008 -4.114998,-13.410004 -3,-20z" clip-rule="evenodd" fill-rule="evenodd"/>
   <path id="svg_8" d="m81.581001,135.688004c-4.528999,6.804001 -10.862999,11.804001 -14,20c-7.134003,1.800003 -7.909,-2.757004 -11,-5c1.216999,-11.001007 17.397995,-32.164001 25,-15z" clip-rule="evenodd" fill-rule="evenodd"/>
   <path id="svg_9" d="m130.580994,137.688004c-2.492004,0.841003 -5.357002,1.30899 -9,1c-5.851997,-12.242004 11.110001,-13.050003 9,-1z" clip-rule="evenodd" fill-rule="evenodd"/>
   <path id="svg_10" d="m86.581001,161.688004c-3.817001,0.483994 -6.383003,-0.283997 -8,-2c-0.350998,-12.710999 15.433998,-8.669998 8,2z" clip-rule="evenodd" fill-rule="evenodd"/>
   <path id="svg_11" d="m99.581001,159.688004c-2.582001,4.673996 -7.998001,7.593002 -12,12c-2.432999,2.679001 -4.598999,10.214996 -10,7c1.817001,-4.546005 6.996002,-11.212997 11,-15c2.085999,-1.973007 6.016998,-3.737 11,-4z" clip-rule="evenodd" fill-rule="evenodd"/>
   <path id="svg_12" d="m414.580994,169.688004c7.214996,-0.880997 9.70401,2.96199 13,6c-1.019012,10.397003 -11.643005,16.244995 -19,17c3.548004,-5.452011 11.246002,-6.753998 12,-15c-3.165985,-1.501007 -7.440979,-1.893005 -6,-8z" fill="#FFFFFF" clip-rule="evenodd" fill-rule="evenodd"/>
   <path id="svg_13" d="m42.581001,196.688004c-0.802002,-3.469009 1.488998,-3.844009 1,-7c-4.970001,-2.886002 -10.939003,0.757004 -17.000002,0c0.16,-10.01001 26.119001,-8.944 24.000002,2c-0.595001,3.072998 -2.645,5.013992 -8,5z" clip-rule="evenodd" fill-rule="evenodd"/>
   <path id="svg_14" d="m254.580994,191.688004c2.888,9.112 5.904999,18.095001 11,25c22.127991,-3.212006 32.575989,-1.929001 53,3c-0.231995,5.899002 6.880981,4.453003 8,9c1.850006,7.516998 -3.981995,7.350998 -6,11c-22.242004,4.026993 -26.601013,-19.445007 -51,-9c4.855988,10.14299 6.76001,23.23999 13,31.999985c15.997009,-2.037994 34.77301,1.28302 46,8c8.050995,4.81601 15.825989,10.01001 14,23c-0.596008,4.237 -1.705017,11.951019 -4,17c-0.606995,1.335999 -2.839996,1.45401 -4,3c-2.067017,2.753998 -2.843018,7.608002 -4,9c-3.662018,4.406006 -9.054016,4.237 -12,11c-5.654999,-0.988983 -5.549011,3.783997 -9,5c1.321991,5.423004 2.529999,14.061005 7,19c-2.167999,7.587006 4.821991,13.831024 -4,16c-7.483002,-6.18399 -6.59201,-20.741974 -11,-30c-11.184998,1.289001 -20.330994,4.819 -29,6c-0.699005,11.957001 10.338989,19.682007 5,30c-15.027008,0.100006 -6.809998,-23.346985 -16,-30c-21.748001,1.457001 -38.962006,0.06601 -51,-10c-3.415009,-6.842987 -2.022003,-15.399994 5,-17c12.744995,-2.902985 30.491989,23.897003 44,14c-4.32901,-11.337982 -4.751999,-26.582001 -11,-36c-29.820999,5.843018 -59.263,-11.944 -49,-45.999985c5.776001,-3.755997 8.561996,-10.951004 14,-15c3.319,-2.472 7.916,-1.992004 10,-6c0.209991,-13.578003 -14.452011,-20.564011 -9,-33c12.28299,2.382996 8.720001,20.612991 16,28c10.71199,-0.955002 16.722992,-6.610001 26,-9c-1.428009,-10.350998 -12.199997,-17.016006 -7,-28c1.667007,0 3.333008,0 5,0zm-19,51c2.921997,10.744995 6.87999,20.452988 13,27.999985c9.264984,-3.380981 17.005981,-2.778992 26,-7c-2.175995,-11.490982 -9.584015,-17.748993 -11,-29.999985c-12.774994,-0.442001 -19.436996,5.229004 -28,9zm-8,4c-6.653,7.013992 -17.919998,9.413986 -17,23.999985c8.175995,6.52002 19.112,2.860016 29,2c-2.153,-10.513 -5.92099,-19.412994 -12,-25.999985zm66,49.999985c6.078003,7.255005 7.31601,19.351013 12,28c12.411987,-4.569 29.123993,-16.368988 20,-33c-9.467987,-1.68399 -29.59198,-5.912994 -32,5zm-37,7c5.609009,9.390991 4.859985,25.140015 12,33c10.072998,-1.984985 20.475006,-2.529999 29,-8c-2.110992,-9.556 -4.606018,-18.72699 -9,-26c-0.235992,-4.429993 -0.722015,-8.610992 -5,-9c-7.179993,2.75 -23.069,1.160004 -27,10z" clip-rule="evenodd" fill-rule="evenodd"/>
   <path id="svg_15" d="m263.580994,233.688004c1.415985,12.250992 8.824005,18.509003 11,29.999985c-8.994019,4.221008 -16.735016,3.619019 -26,7c-6.12001,-7.546997 -10.078003,-17.25499 -13,-27.999985c8.563004,-3.770996 15.225006,-9.442001 28,-9z" fill="#00ff00" clip-rule="evenodd" fill-rule="evenodd"/>
   <path id="svg_16" d="m239.580994,272.687988c-9.888,0.860016 -20.824005,4.519989 -29,-2c-0.919998,-14.585999 10.347,-16.985992 17,-24c6.07901,6.587006 9.847,15.487 12,26z" fill="#00ff00" clip-rule="evenodd" fill-rule="evenodd"/>
   <path id="svg_17" d="m325.580994,291.687988c9.123993,16.631012 -7.588013,28.431 -20,33c-4.68399,-8.648987 -5.921997,-20.744995 -12,-28c2.40802,-10.912994 22.532013,-6.68399 32,-5z" fill="#00ff00" clip-rule="evenodd" fill-rule="evenodd"/>
   <path id="svg_18" d="m283.580994,293.687988c4.277985,0.389008 4.764008,4.570007 5,9c4.393982,7.27301 6.889008,16.444 9,26c-8.524994,5.470001 -18.927002,6.015015 -29,8c-7.140015,-7.859985 -6.390991,-23.609009 -12,-33c3.931,-8.839996 19.820007,-7.25 27,-10z" fill="#00ff00" clip-rule="evenodd" fill-rule="evenodd"/>
   <path id="svg_19" d="m49.581001,334.687988c10.314999,2 21.601997,3.791016 34,6c0,1.666992 0,3.333008 0,5c-9.686005,-0.157013 -27.382,-1.119995 -34,-5c0,-2 0,-4 0,-6z" clip-rule="evenodd" fill-rule="evenodd"/>
   <path id="svg_20" d="m83.581001,353.687988c-4.176003,4.639008 -12.241005,0.727997 -17,0c-3.243999,-0.496002 -7.254002,-0.514008 -11,-1c-0.120003,-2.880005 -4.264999,-1.734985 -4,-5c0.803997,-0.528992 1.624001,-1.042999 3,-1c7.405998,3.208008 24.003998,-0.175995 29,7z" clip-rule="evenodd" fill-rule="evenodd"/>
   <path id="svg_21" d="m122.581001,353.687988c3.546997,5.908997 -1.770004,19.959015 -10,17c-0.448997,-9.448975 1.557999,-16.440979 10,-17z" clip-rule="evenodd" fill-rule="evenodd"/>
   <path id="svg_22" d="m217.580994,393.687988c-0.473007,3.140015 2.690994,2.641998 3,5c-1.992004,4.34201 -3.847,8.819 -11,8c-2.995987,-7.36499 2.001007,-11.709991 8,-13z" clip-rule="evenodd" fill-rule="evenodd"/>
   <path id="svg_23" d="m153.580994,394.687988c3.513992,5.07901 0.737,13.466003 -4,16c-8.075989,-2.016998 -3.440994,-17.179993 4,-16z" clip-rule="evenodd" fill-rule="evenodd"/>
   <path id="svg_24" d="m138.580994,469.687988c-4.154999,3.042999 -5.987,0.554993 -10,-1c-4.325996,-8.622986 12.813004,-9.733978 10,1z" fill="#FFFFFF" clip-rule="evenodd" fill-rule="evenodd"/>
   <path id="svg_25" d="m144.580994,464.687988c4.556992,-1.223999 3.922989,2.743011 8,2c0.664001,5.329987 -0.582001,8.751007 -4,10c-8.595993,-2.109985 -9.970001,-6.306 -4,-12z" fill="#FFFFFF" clip-rule="evenodd" fill-rule="evenodd"/>
   <path id="svg_26" d="m347.580994,470.687988c0.729004,2.729004 -1.987,2.013 -2,4c-3.988007,0.988007 -3.011993,-2.988007 -7,-2c-1.438995,-8.921997 6.859009,-5.230988 9,-2z" fill="#FFFFFF" clip-rule="evenodd" fill-rule="evenodd"/>
   <path id="svg_27" d="m165.580994,469.687988c1.291992,4.958008 -2.419998,4.912994 -2,9c-16.526993,3.548004 -6.435989,-16.597992 2,-9z" fill="#FFFFFF" clip-rule="evenodd" fill-rule="evenodd"/>
   <path id="svg_28" d="m178.580994,474.687988c-0.112,4.59201 -5.376999,8.110016 -10,5c-0.636993,-7.044983 6.741013,-10.135986 10,-5z" fill="#FFFFFF" clip-rule="evenodd" fill-rule="evenodd"/>
   <path id="svg_29" d="m335.580994,477.687988c-3.362,4.214996 -9.420013,-2.041992 -8,-5c3.614014,-2.636993 7.253998,1.615997 8,5z" fill="#FFFFFF" clip-rule="evenodd" fill-rule="evenodd"/>
   <path id="svg_30" d="m185.580994,474.687988c1.479004,0.520996 2.520996,1.479004 4,2c-0.738007,3.595001 -1.983002,6.68399 -7,6c-1.21199,-4.878998 2.258011,-5.074982 3,-8z" fill="#FFFFFF" clip-rule="evenodd" fill-rule="evenodd"/>
   <path id="svg_31" d="m304.580994,477.687988c0,1.333008 0,2.666992 0,4c-3.121002,2.391998 -8.631989,0.489014 -8,-4c3.087006,0.162018 5.653015,-2.362 8,0z" fill="#FFFFFF" clip-rule="evenodd" fill-rule="evenodd"/>
   <path id="svg_32" d="m140.580994,477.687988c3.078003,0.588989 7.078003,0.256012 7,4c-3.112991,3.005005 -9.492996,-1.39798 -7,-4z" fill="#FFFFFF" clip-rule="evenodd" fill-rule="evenodd"/>
   <path id="svg_33" d="m322.580994,486.687988c-3.570007,-1.096008 -5.903992,-3.429993 -7,-7c5.312012,-5.440979 15.252014,4.499023 7,7z" fill="#FFFFFF" clip-rule="evenodd" fill-rule="evenodd"/>
   <path id="svg_34" d="m357.580994,486.687988c-1.419006,-0.085999 -2.832001,-0.165009 -3,1c-5.029999,-0.635986 -7.226013,-4.106995 -9,-8c5.53302,-2.853973 10.440002,2.641022 12,7z" fill="#FFFFFF" clip-rule="evenodd" fill-rule="evenodd"/>
   <path id="svg_35" d="m277.580994,484.687988c1.018982,4.352997 -2.067993,4.597992 -3,7c-3.860016,-2.807007 -8.88501,-4.447998 -12,-8c3.436005,-6.773987 10.394012,0.078003 15,1z" fill="#FFFFFF" clip-rule="evenodd" fill-rule="evenodd"/>
   <path id="svg_36" d="m295.580994,490.687988c-4.674011,-0.660004 -7.339996,-3.325989 -8,-8c5.774017,-2.690002 10.403015,2.769012 8,8z" fill="#FFFFFF" clip-rule="evenodd" fill-rule="evenodd"/>
   <path id="svg_37" d="m160.580994,484.687988c-0.529007,0.804016 -1.042999,1.623016 -1,3c-3.656998,-0.342987 -7.895996,-0.104004 -8,-4c3.251007,-1.643982 6.190002,-0.388977 9,1z" fill="#FFFFFF" clip-rule="evenodd" fill-rule="evenodd"/>
   <path id="svg_38" d="m336.580994,483.687988c1.666992,0 3.333008,0 5,0c0.210999,2.912994 3.923004,4.959015 2,7c-1.907013,1.877014 -1.809998,-0.593994 -5,0c0.988007,-3.987976 -2.988007,-3.011993 -2,-7z" fill="#FFFFFF" clip-rule="evenodd" fill-rule="evenodd"/>
   <path id="svg_39" d="m172.580994,486.687988c1.207001,4.205994 -1.615005,4.38501 -2,7c-2.356003,0.022003 -2.944,-1.722992 -6,-1c-1.723999,-6.138 4.021011,-8.73999 8,-6z" fill="#FFFFFF" clip-rule="evenodd" fill-rule="evenodd"/>
   <path id="svg_40" d="m315.580994,492.687988c-4.550018,3.227997 -11.470001,-3.207001 -10,-6c4.615021,-2.819977 10.089996,0.90802 10,6z" fill="#FFFFFF" clip-rule="evenodd" fill-rule="evenodd"/>
   <path id="svg_41" d="m183.580994,487.687988c1.373993,6.431 -4.667999,10.158997 -8,6c2.317001,-2.349976 3.277008,-6.056 8,-6z" fill="#FFFFFF" clip-rule="evenodd" fill-rule="evenodd"/>
   <path id="svg_42" d="m191.580994,487.687988c3.300003,2.406006 -1.27301,5.313995 -2,7c-3.299988,-2.405975 1.27301,-5.313995 2,-7z" fill="#FFFFFF" clip-rule="evenodd" fill-rule="evenodd"/>
   <path id="svg_43" d="m335.580994,495.687988c-3.890991,2.649994 -8.929016,-0.657013 -8,-6c3.110016,-1.871002 8.855011,0.731018 8,6z" fill="#FFFFFF" clip-rule="evenodd" fill-rule="evenodd"/>
   <path id="svg_44" d="m280.580994,489.687988c5.078003,0.977997 8.645996,3.977997 7,9c-5.381989,0.381989 -7.730011,-2.269989 -9,-6c2.134003,0.468018 1.903992,-1.428986 2,-3z" fill="#FFFFFF" clip-rule="evenodd" fill-rule="evenodd"/>
   <path id="svg_45" d="m121.581001,493.687988c0.649002,3.648987 -0.674004,5.325989 -2,7c-3.812004,-0.187988 -6.580002,-1.420013 -7,-5c1.653,-5.234985 4.692001,-3.140991 9,-2z" fill="#FFFFFF" clip-rule="evenodd" fill-rule="evenodd"/>
   <path id="svg_46" d="m138.580994,494.687988c-0.777008,0.890015 -1.074997,2.257996 -1,4c-1.419006,-0.085999 -2.832001,-0.165009 -3,1c-2.824005,-0.842987 -2.755005,-4.578003 -6,-5c1.27301,-4.953979 7.594009,-2.184998 10,0z" fill="#FFFFFF" clip-rule="evenodd" fill-rule="evenodd"/>
   <path id="svg_47" d="m358.580994,491.687988c2.932983,1.734009 5.764008,3.569 6,8c-5.187012,0.854004 -6.765015,-1.902008 -8,-5c-0.550995,-2.21698 1.908997,-1.423981 2,-3z" fill="#FFFFFF" clip-rule="evenodd" fill-rule="evenodd"/>
   <path id="svg_48" d="m299.580994,492.687988c4.316986,0.348999 6.651001,2.683014 7,7c-3.167999,2.371002 -10.854004,-2.349976 -7,-7z" fill="#FFFFFF" clip-rule="evenodd" fill-rule="evenodd"/>
   <path id="svg_49" d="m369.580994,554.687988c-3.815002,0.14801 -4.815002,-2.518005 -8,-3c1.80899,-6.857971 7.972992,-9.359985 13,-13c0.501984,-4.426025 3.290985,-9.255981 4,-13c0.38501,-2.028992 -1.979004,-2.317017 -2,-3c-0.098999,-3.080994 5.695984,-9.708008 8,-13c4.492004,-6.420013 7.819,-15.444 18,-17c5.098999,4.678009 6.936005,14.701996 3,24c-0.319,0.755005 -2.722015,1.299011 -3,2c-1.101013,2.77301 -0.303009,3.453979 -2,6c-0.546997,0.820007 -1.55899,1.336975 -2,2c-2.876007,4.319031 -1.884003,4.103027 -5,7c-3.167999,2.945007 -10.533997,7.622986 -16,10c-1.299988,5.033997 -5.36499,7.302002 -8,11z" fill="#FFFFFF" clip-rule="evenodd" fill-rule="evenodd"/>
   <path id="svg_50" d="m152.580994,494.687988c2.121994,4.502014 -1.031998,11.358002 -8,10c-1.483002,-1.18399 -1.556,-3.777008 -3,-5c2.220001,-3.112976 6.32901,-4.337982 11,-5z" fill="#FFFFFF" clip-rule="evenodd" fill-rule="evenodd"/>
   <path id="svg_51" d="m325.580994,504.687988c-1.666992,0 -3.333008,0 -5,0c0.756989,-3.756989 -2.617004,-3.382996 -4,-5c1.175995,-7.707001 10.832001,-2.052002 9,5z" fill="#FFFFFF" clip-rule="evenodd" fill-rule="evenodd"/>
   <path id="svg_52" d="m353.580994,502.687988c-3.950012,-0.049988 -5.950012,-2.049988 -6,-6c2.350006,-1.618988 6.056,2.087006 6,6z" fill="#FFFFFF" clip-rule="evenodd" fill-rule="evenodd"/>
   <path id="svg_53" d="m165.580994,497.687988c-0.040009,6.985016 -3.95401,11.903992 -10,10c-1.982986,-4.449982 3.278,-14.254974 10,-10z" fill="#FFFFFF" clip-rule="evenodd" fill-rule="evenodd"/>
   <path id="svg_54" d="m124.581001,500.687988c3.237,-1.670013 6.999001,-1.677002 7.999992,2c1.950012,7.163025 -17.726997,3.018005 -7.999992,-2z" fill="#FFFFFF" clip-rule="evenodd" fill-rule="evenodd"/>
   <path id="svg_55" d="m301.580994,505.687988c0.744995,3.078003 -2.744995,1.921997 -2,5c-3.944,-2.389008 -9.394989,-3.272003 -9,-10c5.205994,-2.703979 5.984009,4.526001 11,5z" fill="#FFFFFF" clip-rule="evenodd" fill-rule="evenodd"/>
   <path id="svg_56" d="m177.580994,501.687988c-1.951004,5.68399 -5.072006,10.470032 -11,7c2.981003,-3.042999 4.506012,-10.519989 11,-7z" fill="#FFFFFF" clip-rule="evenodd" fill-rule="evenodd"/>
   <path id="svg_57" d="m339.580994,500.687988c2.329987,2.003998 5.674011,2.992004 5,8c-1.162994,-0.162994 -1.778992,0.221008 -2,1c-3.100006,-0.56601 -2.630005,-4.70401 -6,-5c0.294006,-2.039001 2.705994,-1.960999 3,-4z" fill="#FFFFFF" clip-rule="evenodd" fill-rule="evenodd"/>
   <path id="svg_58" d="m107.581001,501.687988c1.333,0 2.667,0 4,0c2.016998,2.368988 2.899002,6.959015 0,9c-2.042999,-0.957001 -3.957001,-2.042999 -6,-3c1.388,-1.277985 0.612,-4.721985 2,-6z" fill="#FFFFFF" clip-rule="evenodd" fill-rule="evenodd"/>
   <path id="svg_59" d="m311.580994,504.687988c2.589996,1.410004 6.766998,1.233002 6,6c-3.988007,0.549011 -3.011993,0.549011 -7,0c-0.429993,-3.868988 -1.095001,-3.557983 1,-6z" fill="#FFFFFF" clip-rule="evenodd" fill-rule="evenodd"/>
   <path id="svg_60" d="m138.580994,505.687988c1.906998,0.425995 1.809998,2.856995 5,2c0.649002,3.648987 -0.674011,5.325989 -2,7c-3.705002,0.039001 -5.796997,-1.536011 -8,-3c1.035004,-2.631989 3.965012,-3.367981 5,-6z" fill="#FFFFFF" clip-rule="evenodd" fill-rule="evenodd"/>
   <path id="svg_61" d="m367.580994,506.687988c-4.281006,3.718994 -5.69101,10.309021 -9,15c-1.40799,-0.500977 -5.64801,-0.888977 -7,-2c-0.567017,-0.466003 -3.970001,-6.835022 -4,-6c0.205994,-5.603973 12.867004,-9.635986 20,-7z" fill="#FFFFFF" clip-rule="evenodd" fill-rule="evenodd"/>
   <path id="svg_62" d="m329.580994,506.687988c4.36499,0.63501 6.27301,3.72699 7,8c-3.914001,4.721008 -12.040985,-4.015991 -7,-8z" fill="#FFFFFF" clip-rule="evenodd" fill-rule="evenodd"/>
   <path id="svg_63" d="m124.581001,512.687988c-0.340004,3.325989 -3.788002,3.544983 -5,6c-2.322998,-0.677002 -2.677002,-3.322998 -5,-4c0.218002,-6.578979 7.736,-7.445984 10,-2z" fill="#FFFFFF" clip-rule="evenodd" fill-rule="evenodd"/>
   <path id="svg_64" d="m101.581001,510.687988c2.263,1.070007 4.396996,2.27002 6,4c0.113998,3.447998 -4.113998,2.552002 -4,6c-2.931999,-0.734009 -4.300003,-3.03302 -6,-5c0.677002,-2.322998 3.322998,-2.677002 4,-5z" fill="#FFFFFF" clip-rule="evenodd" fill-rule="evenodd"/>
   <path id="svg_65" d="m157.580994,513.687988c-1.578003,2.422974 -3.578003,4.422974 -6,6c-2.408997,0.408997 -2.174011,-1.825989 -5,-1c-0.702988,-7.14798 6.871002,-8.014984 11,-5z" fill="#FFFFFF" clip-rule="evenodd" fill-rule="evenodd"/>
   <path id="svg_66" d="m304.580994,511.687988c1.312988,1.02002 3.686981,0.97998 5,2c0,1.666992 0,3.333008 0,5c-4.563995,-0.153015 -9.16098,-3.813965 -5,-7z" fill="#FFFFFF" clip-rule="evenodd" fill-rule="evenodd"/>
   <path id="svg_67" d="m320.580994,513.687988c2.950989,1.382019 4.049011,4.617981 7,6c-0.354004,1.312988 -1.761017,1.572998 -2,3c-3.886993,-1.752014 -6.432007,-4.450012 -5,-9z" fill="#FFFFFF" clip-rule="evenodd" fill-rule="evenodd"/>
   <path id="svg_68" d="m168.580994,516.687988c-1.62001,4.018005 -4.113007,6.768982 -9,5c0.729004,-4.328003 5.169006,-9.657959 9,-5z" fill="#FFFFFF" clip-rule="evenodd" fill-rule="evenodd"/>
   <path id="svg_69" d="m136.580994,519.687988c-1.096008,3.570007 -3.429001,5.903992 -7,7c-1.077011,-2.257019 -3.753006,-2.913025 -5,-5c2.05201,-7.195007 7.480011,-6.032959 12,-2z" fill="#FFFFFF" clip-rule="evenodd" fill-rule="evenodd"/>
   <path id="svg_70" d="m114.581001,520.687988c0.724998,3.059021 -1.724998,2.940979 -1,6c-6.159004,1.645996 -7.413002,-1.921997 -5,-7c3.868996,-0.429993 3.557999,-1.094971 6,1z" fill="#FFFFFF" clip-rule="evenodd" fill-rule="evenodd"/>
   <path id="svg_71" d="m94.581001,520.687988c3.628998,-0.961975 0.839996,4.492981 4,4c-0.707001,3.595032 -4.693001,1.406006 -6,0c0.013,-1.987 2.728996,-1.270996 2,-4z" fill="#FFFFFF" clip-rule="evenodd" fill-rule="evenodd"/>
   <path id="svg_72" d="m319.580994,530.687988c-4.643005,-0.356995 -6.593994,-3.406006 -8,-7c3.85202,-3.674988 8.69101,0.520996 8,7z" fill="#FFFFFF" clip-rule="evenodd" fill-rule="evenodd"/>
   <path id="svg_73" d="m148.580994,525.687988c-0.730011,4.036987 -4.916,6.161011 -9,4c0.034012,-5.727966 6.161011,-8.950012 9,-4z" fill="#FFFFFF" clip-rule="evenodd" fill-rule="evenodd"/>
   <path id="svg_74" d="m126.581001,530.687988c-1.431,5.182983 -7.945,4.151978 -11,1c0.921997,-5.971985 8.820999,-5.786011 11,-1z" fill="#FFFFFF" clip-rule="evenodd" fill-rule="evenodd"/>
   <path id="svg_75" d="m160.580994,528.687988c-0.844009,3.013977 -5.638,5.632019 -9,3c0.653,-4.065002 6.223007,-6.752014 9,-3z" fill="#FFFFFF" clip-rule="evenodd" fill-rule="evenodd"/>
   <path id="svg_76" d="m101.581001,528.687988c1,0 2,0 3,0c1.151001,1.182007 1.131996,3.534973 1,6c-2.598999,-0.598999 -3.598999,0.401001 -3,3c-4.644005,-1.583008 -3.958,-5.820007 -1,-9z" fill="#FFFFFF" clip-rule="evenodd" fill-rule="evenodd"/>
   <path id="svg_77" d="m138.580994,534.687988c0.479004,3.145996 -1.424011,3.908997 -2,6c-4.557007,1.223022 -3.923004,-2.742981 -8,-2c1.02301,-3.391968 6.292007,-6.468994 10,-4z" fill="#FFFFFF" clip-rule="evenodd" fill-rule="evenodd"/>
   <path id="svg_78" d="m112.581001,535.687988c2.097,1.901978 5.275002,2.724976 5,7c-3.332001,0.335022 -4.436005,2.896973 -9,2c0.367996,-1.700989 -0.779999,-1.887024 -2,-2c1.112,-3.221985 3.758995,-4.906982 6,-7z" fill="#FFFFFF" clip-rule="evenodd" fill-rule="evenodd"/>
   <path id="svg_79" d="m148.580994,538.687988c-0.102005,2.544983 -3.727005,2.362 -5,1c0.102005,-2.544983 3.727005,-2.362 5,-1z" fill="#FFFFFF" clip-rule="evenodd" fill-rule="evenodd"/>
   <path id="svg_80" d="m128.580994,544.687988c-0.758003,2.575012 -3.192001,3.474976 -7,3c0,-1 0,-2 0,-3c1.335007,-1.427002 5.666008,-1.427002 7,0z" fill="#FFFFFF" clip-rule="evenodd" fill-rule="evenodd"/>
   <path id="svg_81" d="m126.581001,569.687988c-9.844002,-0.48999 -13.259003,-7.40802 -17,-14c1.991997,-4.812012 6.638,0.088989 10,0c-0.160004,6.707031 8.786995,8.921021 7,14z" fill="#FFFFFF" clip-rule="evenodd" fill-rule="evenodd"/>
   <path id="svg_82" d="m371.580994,564.687988c-2.235992,6.763977 -4.209991,13.789978 -15,12c-8.919006,-9.606995 7.697998,-24.411011 15,-12z" fill="#FFFFFF" clip-rule="evenodd" fill-rule="evenodd"/>
   <path id="svg_83" d="m334.580994,583.687988c-3.196014,3.463013 -11.544006,5.437988 -18,4c-7.087006,-1.578003 -17.838989,-2.304016 -30,-2c-2.035004,0.051025 -1.958008,1.622009 -4,2c-7.837006,1.450989 -25.31601,-0.861023 -37,0c-9.844009,0.726013 -18.572998,1.064026 -30,0c-16.783997,-1.562988 -36.863007,-2.413025 -36,-21c19.625992,-0.653992 48.677002,5.562012 76,4c7.121002,-0.406982 14.313995,-1.77002 21,-2c9.182983,-0.315979 17.804993,-0.653015 26,0c12.011993,0.958008 30.553009,0.807007 32,15z" clip-rule="evenodd" fill-rule="evenodd"/>
   <path id="svg_84" d="m311.580994,12.688c-4.550018,6.124001 -20.634003,9.362 -21,23c-2.359009,8.307999 -12.565002,8.768002 -19,13c-4.72699,-2.939999 -3.817017,-11.515999 -5,-18c-8.408997,-6.805 -21.354004,-7.067999 -34,-6c-15.781006,1.333 -34.570007,5.282 -51,4c0.209991,-4.789999 7.781998,-2.218 9,-6c17.679001,-1.320999 30.477997,-7.521999 48,-9c3.511993,2.822001 7.744995,4.921 11,8c16.725006,-1.251999 45.375,-9.000999 62,-9z" fill="#FFFFFF" clip-rule="evenodd" fill-rule="evenodd"/>
   <path id="svg_85" d="m40.581001,83.688004c0.781998,4.801994 -2.250999,14.400993 -3,21c-11.326002,-2.922005 0.076,-16.758003 3,-21z" fill="#FFFFFF" clip-rule="evenodd" fill-rule="evenodd"/>
   <path id="svg_86" d="m399.580994,163.688004c2.036987,7.29599 9.132996,9.533997 12,16c-2.158997,7.839996 -11.39801,8.60199 -11,19c0.354004,1.313004 1.760986,1.572998 2,3c13.787994,0.938004 17.502991,-12.91301 28,-12c-0.699005,13.354004 -22.778015,13.848999 -25,29c11.578003,2.567993 17.619995,-18.62001 30,-12c-3.468018,7.86499 -15.30899,7.358002 -15,19c8.046997,-0.324005 14.029999,-10.987 23,-4c-1.726013,4.791992 -3.597992,1.033997 -8,1c-5.416016,3.250992 -10.609009,6.723999 -13,13c-0.049011,3.382004 2.328003,4.337997 4,6c3.890991,-0.776001 8.186981,-1.145996 10,-4c5.097992,1.259003 4.554993,6.369995 6,11c2.584991,8.283005 4.110992,12.953995 5,24.999985c1.053986,14.292999 3.608002,28.437012 2,46c-0.304993,3.326019 -1.399994,7.062012 -2,13c-0.735992,7.283997 -3.649994,12.557007 -6,20c-1.226013,3.883026 -1.934998,8.252014 -3,11c-0.395996,1.022003 -2.756989,1.456024 -3,2c-0.597992,1.335022 0.727997,3.744019 0,5c-1.605011,2.77002 -6.489014,6.525024 -6,13c-2.846008,1.821014 -3.647003,5.686005 -7,7c-0.88501,3.587006 -3.139008,8.40802 -5,12c-0.362,0.700012 -2.057007,-0.483002 -2,1c0.220001,5.697021 -14.819,16.13501 -21,22c-1.294006,1.227997 -1.821014,4.069 -3,5c-1.455994,1.149017 -7.854004,3.649017 -10,5c-3.028015,1.906006 -5.744995,3.354004 -8,6c-6.815002,1.184998 -12.359009,3.641022 -16,8c-12.071014,1.434998 -23.475006,9.438019 -37,11c-2.296997,0.266022 -5.562012,-0.437988 -8,0c-4.112,0.737 -7.931,3.326019 -12,4c-3.289001,0.545013 -6.722015,-0.233978 -10,0c-9.330994,0.666016 -16.705994,2.799011 -26,2c-0.416016,-0.03598 -4.837006,0.052002 -5,0c-1.072998,-0.342987 -0.692017,-1.872986 -2,-2c-8.835007,-0.85498 -19.546005,2.463013 -27,-4c-18.19101,-1.184998 -32.436996,-2.997986 -48,-10c-1.210007,-0.543976 -1.871002,-2.628998 -3,-3c-3.053009,-1.003998 -6.227005,0.13501 -9,-1c-1.098999,-0.449982 -2.486008,-2.28299 -4,-3c-3.979004,-1.884979 -10.479004,-3.638 -15,-6c-2.09201,-1.093994 -4.028,-3.932983 -6,-5c-5.322006,-2.880981 -11.820999,-4.839996 -17,-9c-5.416,-4.350983 -15.157005,-9.559998 -22,-14c-0.553001,-4.112976 -2.866005,-6.467987 -3,-11c-2.322006,-1.345001 -5.678001,-1.654999 -8,-3c-0.798004,-1.867981 -1.671005,-3.661987 -2,-6c-9.823006,-1.843994 -9.395004,-13.937988 -16,-19c-1.068001,-5.734985 1.391998,-7.940979 2,-12c-8.491005,-0.020996 -16.928005,-1.207001 -27.000004,-2c-6.368,-7.721985 -16.203999,-10.648987 -20,-19c-0.617001,-1.358002 0.384998,-3.544983 0,-5c-3.257999,-12.322998 -1.673,-26.53299 5,-36c7.973,-11.310974 22.605,-20.181 31.000004,-24c-3.191002,11.042999 -20.762005,13.627014 -23.000004,24c-3.603001,16.697021 17.952,10.778015 28.000004,17c-9.106003,4.365997 -16.594002,0.335999 -26.000004,3c-1.604,12.606018 11.195,11.861023 22.000004,15c4.071999,1.183014 10.233994,7.063019 17,6c-1.428001,-11.652985 -14.926003,-6.187988 -21,-14c2.204994,-5.902985 11.227997,-1.477997 17,-2c5.420998,-13.097992 -10.809006,-13.18399 -16,-19c2.364998,-4.302002 2.671997,-10.66098 6,-14c-2.757004,-8.05899 0.433998,-10.030975 0,-20c0.440994,-2.891998 2.107994,-4.55899 5,-5c0,-2.332977 0,-4.666992 0,-7c4.294998,-5.037994 8.709999,-9.955994 11,-16.999985c0.168999,-2.503006 -1.536003,-3.130005 -3,-4c3.032997,-6.264008 6.599998,-10.622009 11,-16c6.264999,-7.656998 13.911995,-17.852997 20,-27c3.925995,-5.899002 8.300995,-13.44101 15,-18c1.019989,-1.314011 0.979996,-3.686005 2,-5c12.371994,-10.628006 22.266998,-23.733002 34,-35c5.166992,0.166992 4.619995,-5.380005 10,-5c5.750992,-9.249001 15.459991,-14.540001 22,-23c4.425995,-1.574005 7.604996,-4.395004 11,-7c13.559998,6.566994 28.186996,10.868996 50,12c19.431,1.007996 40.747986,4.590996 55,0c3.850006,-1.240005 7.329987,-6.127007 11,-6c4.878998,0.169998 8.132996,7.415993 13,11c1.161011,0.854996 3.729004,1.213997 5,2c1.618011,1 2.563995,2.178993 4,3c3.496002,2.000999 7.497986,2.911995 9,4c2.537994,1.838997 3.65799,5.095001 6,7c3.309998,2.692993 7.237,3.567001 10,6c1.070984,0.942993 0.529999,2.716003 2,4c0.662994,0.580002 3.421997,0.347 4,1c0.899994,1.016998 0.048004,3.082001 1,4c6.015015,5.802002 13.450012,10.121994 19,16zm-150,28c-5.199997,10.983994 5.571991,17.649002 7,28c-9.277008,2.389999 -15.28801,8.044998 -26,9c-7.279999,-7.387009 -3.71701,-25.617004 -16,-28c-5.452011,12.435989 9.209991,19.421997 9,33c-2.084,4.007996 -6.681,3.528 -10,6c-5.438004,4.048996 -8.223999,11.244003 -14,15c-10.263,34.055984 19.179001,51.843002 49,45.999985c6.248001,9.417999 6.67099,24.662018 11,36c-13.508011,9.897003 -31.255005,-16.902985 -44,-14c-7.022003,1.600006 -8.415009,10.157013 -5,17c12.037994,10.06601 29.251999,11.457001 51,10c9.190002,6.653015 0.972992,30.100006 16,30c5.338989,-10.317993 -5.699005,-18.042999 -5,-30c8.669006,-1.181 17.815002,-4.710999 29,-6c4.40799,9.258026 3.516998,23.81601 11,30c8.821991,-2.168976 1.832001,-8.412994 4,-16c-4.470001,-4.938995 -5.678009,-13.576996 -7,-19c3.450989,-1.216003 3.345001,-5.988983 9,-5c2.945984,-6.763 8.337982,-6.593994 12,-11c1.156982,-1.391998 1.932983,-6.246002 4,-9c1.160004,-1.54599 3.393005,-1.664001 4,-3c2.294983,-5.048981 3.403992,-12.763 4,-17c1.825989,-12.98999 -5.949005,-18.18399 -14,-23c-11.22699,-6.71698 -30.002991,-10.037994 -46,-8c-6.23999,-8.759995 -8.144012,-21.856995 -13,-31.999985c24.398987,-10.445007 28.757996,13.026993 51,9c2.018005,-3.649002 7.850006,-3.483002 6,-11c-1.119019,-4.546997 -8.231995,-3.100998 -8,-9c-20.424011,-4.929001 -30.872009,-6.212006 -53,-3c-5.095001,-6.904999 -8.112,-15.888 -11,-25c-1.666992,0 -3.332993,0 -5,0zm-199.999992,148.999985c6.618,3.880005 24.313995,4.842987 34,5c0,-1.666992 0,-3.333008 0,-5c-12.398003,-2.208984 -23.685001,-4 -34,-6c0,2 0,4 0,6zm5,6c-1.375999,-0.042999 -2.196003,0.471008 -3,1c-0.264999,3.265015 3.879997,2.119995 4,5c3.745998,0.485992 7.756001,0.503998 11,1c4.758995,0.727997 12.823997,4.639008 17,0c-4.996002,-7.175995 -21.594002,-3.791992 -29,-7zm58,24c8.229996,2.959015 13.546997,-11.091003 10,-17c-8.442001,0.559021 -10.448997,7.551025 -10,17zm96.999992,36c7.153,0.819 9.007996,-3.65799 11,-8c-0.309006,-2.358002 -3.473007,-1.859985 -3,-5c-5.998993,1.290009 -10.995987,5.63501 -8,13zm-60,4c4.737,-2.533997 7.513992,-10.92099 4,-16c-7.440994,-1.179993 -12.075989,13.983002 -4,16z" fill="#00ff00" clip-rule="evenodd" fill-rule="evenodd"/>
   <path id="svg_87" d="m325.580994,11.688c-4.574005,5.092001 -10.824005,8.509001 -18,11c2.270996,3.797001 6.859009,0.974001 10,0c10.257996,-3.18 22.734009,-11.702 36,-14c6.066986,-1.051 11.080994,-1.037 19,-1c1.721008,0.008 4.770996,-0.358 6,0c9.04599,2.633 15.725983,14.593 9,25c-4.071991,1.594002 -6.769989,4.563999 -8,9c-4.951996,1.048 -7.328003,4.672001 -9,9c-2.825989,-0.826 -2.591003,1.409 -5,1c-7.181,12.152 -19.85199,18.814999 -27,31.000004c5.536011,0.973999 9.518982,-4.133003 15,-6c2.341003,-0.797005 5.330994,-0.298004 8,-1c2.174988,-0.572006 3.796997,-2.291 6,-3c11.652985,-3.753006 27.807007,-5.532005 38,-5c8.186981,0.426994 19.036011,2.837997 18,12c-0.628998,5.558998 -8.071014,6.997993 -13,10c-1.855011,1.129997 -2.399994,3.347 -4,4c-2.847015,1.160995 -6.567993,1.017998 -10,2c-1.287018,0.367996 -2.846008,1.771996 -4,2c-18.737,3.695999 -35.700012,-1.229004 -53,2c-3.985992,0.319 -7.389008,0.054993 -9,-2c-1.830017,2.329994 1.730011,5.673996 6,5c0.708008,4.625 6.862,3.804993 8,8c1.666992,0 3.333008,0 5,0c20.553009,14.446999 40.77301,29.225998 56,49c9.313995,2.018997 16.997986,5.668991 25,9c3.549011,8.828995 1.548004,17.074997 8,23c1.069,3.735992 -2.483002,2.849991 -2,6c1.747986,2.917999 4.738007,4.595001 7,7c0.768982,3.768997 -1.220001,4.779999 -1,8c3.089996,2.910004 8.596985,3.403 10,8c-0.100006,5.899994 -4.744995,7.25499 -7,11c-1.315002,5.800003 3.277985,10.065002 5,15c0.516998,1.481003 -0.365997,3.468002 0,5c0.643982,2.690002 3.385986,5.531998 4,7.999985c2.613983,10.508026 0.735992,23.212006 2,35c1.050995,9.809998 2.272003,24.667023 0,38c-1.145996,6.729004 -1.985992,14.322021 -4,21c-0.953003,3.162018 -3.903992,5.775024 -5,9c-1.78299,5.247009 -1.266998,11.485016 -3,16c-4.670013,12.165009 -15.104004,20.707001 -18,31c-3.140015,-0.472992 -2.641998,2.69101 -5,3c-6.054993,13.945007 -21.619995,18.380005 -29,31c-3.979004,-1.789978 -5.131012,2.908997 -7,4c-2.424011,1.415009 -6.425995,0.403015 -7,4c-10.774994,2.558014 -18.446014,8.220001 -28,12c9.399994,12.266022 19.511993,23.822021 24,41c4.674011,-0.659973 7.339996,-3.325989 8,-8c7.445984,-2.408997 11.290009,-13.449982 20,-13c4.838989,0.25 7.540009,4.855011 12,8c0.419983,4.580017 -1.287994,11.288025 2,13c-3.700012,2.451019 -1.313995,6.953003 -2,10c-1.666016,7.411987 -6.718994,13.020996 -8,20c-4.625,1.375 -7.027008,4.973022 -9,9c-10.936005,1.39801 -15.60199,9.064026 -23,14c6.604004,11.861023 -3.355011,21.090027 -8,28c-16.67099,1.590027 -26.694,-11.005005 -35,-21c-0.535004,-7.867981 0.389984,-14.276978 4,-18c-3.21701,-3.115967 -5.065002,-7.60199 -11,-8c-3.678009,2.656006 -3.395996,9.270996 -6,13c-8.561005,1.22699 -7.657013,-7.008972 -15,-7c-19.071991,-21.593994 -41.562012,-39.772003 -61,-61c-10.822006,-1.911987 -25.722,-4.852997 -36,-4c-2.734009,2.932007 -4.400009,6.934021 -4,13c-1.449997,5.21701 -7.16301,6.171021 -7,13c-20.085007,19.582031 -38.473999,40.859009 -69,50c3.132996,8.148987 13.369003,9.496033 16,19c0.541,1.955017 -2.253006,2.020996 -3,7c-22.693001,6.673035 -39.043007,-6.661987 -47,-21c-1.517006,-8.370972 3.466995,-17.372009 -2,-21c-3.866005,0.801025 -4.755005,4.578003 -7,7c-1.333,0 -2.667007,0 -4,0c-12.559006,-11.226013 -2.967003,-29.344971 6,-38c1.075996,-19.924988 14.087997,-27.911987 25,-38c10.946999,0.386017 5.061996,17.604004 14,20c4.410004,-4.832977 -2.769005,-9.811981 -5,-14c1.119995,-9.853973 -9.658005,-17.868988 -2,-25c6.404999,-0.565002 6.440994,5.324005 12,3c-6.175003,-8.802002 -18.104004,-10.338989 -26,-17c-5.375,-4.533997 -8.332001,-11.230988 -15,-14c-12.572006,-17.427979 -29.292004,-30.707977 -35.000004,-55c-9.286999,-7.506989 -20.992001,-14.519989 -27,-28c-1.079,-2.419983 -3.407,-5.334991 -4,-7c-0.729,-2.043976 1.327,-2.793976 1,-4c-0.208,-0.765991 -1.860001,-0.678986 -2,-2c-1.754,-16.513 5.575001,-22.207001 10,-36c5.925999,-1.406982 7.898998,-6.766998 13,-9c0,-2.666992 0,-5.332977 0,-8c3.484001,-7.182983 6.119999,-15.213989 7,-24.999985c3.946999,-3.386002 6.402,-8.264008 7,-15c4.271999,-2.061996 5.212002,-7.45401 7.000004,-12c-1.758003,-4.242004 -6.102005,-5.89801 -9.000004,-9c-8.338001,-1.031006 -14.641998,2.535995 -21,1c-6.110001,-1.475998 -7.060999,-8.130997 -13,-9c-0.759001,-7.341003 -7.646,-10.768997 -7,-18c0.437,-4.891006 5.552999,-8.699997 8,-13c-6.618999,-5.714996 -10.638,-14.029007 -18,-19c-7.113,-12.10701 -7.406,-26.600998 -1,-39c3.624001,-0.376007 5.016,-2.984001 6,-6c7.073999,0.073997 8.297001,-5.703003 13,-8c-0.146,-7.277 5.025,-17.544006 8,-25c16.200001,-8.312004 27.384998,-26.371002 53.000004,-22.000004c10.245995,8.088001 27.403999,9.261997 40,15.000004c1.407997,2.591995 3.382996,4.616997 5,7c2.847,-1.869003 8.709991,0.158997 11,2c0.100998,3.100998 -1.223007,4.776993 -2,7c-12.188004,-4.834007 -18.652,0.175995 -29,4c-1.958,-1.869003 -0.309006,-3.663002 0,-6c-4.276001,1.491997 -15.638,9.062996 -24,4c-6.461006,0.809998 -10.667007,7.767998 -17,3c-4.954002,4.045998 -6.266003,11.733994 -17.000004,10c-4.349998,5.982994 -4.326,16.340996 -12,19c-17.507,-2.958 -35.015,9.731003 -28,25c4.381001,-4.953003 4.366,-14.300003 16,-12c0.562,6.438004 3.172001,10.828003 9,12c-0.598999,9.917999 9.084999,11.498001 6,21c-1.120998,2.878998 -7.319,0.681 -8,4c3.883999,3.78299 13.236,2.097 14,9c-7.022999,2.647003 -10.308998,-5.084 -19,-2c-4.464001,1.584 -7.171,7.87999 -7,12c0.577,13.875992 36.438,27.279999 37,6c6.794003,-1.126999 3.027,8.306 4,13c1.088001,3.246002 4.893002,3.774002 7.000004,6c2.753998,-3.246002 6.129997,-5.87001 7,-11c5.177994,-1.51001 5.973999,-7.246002 9,-11c1.550995,-1.923996 4.490997,-3.02301 6,-5c2.912994,-3.817001 4.598,-8.901001 8,-13c3.792,-4.568008 10.675995,-11.419006 14,-18c4.713997,-0.932999 4.898994,-2.923996 10,-8c2.133995,-2.124008 5.528,-4.117004 7,-6c0.966995,-1.237 0.979004,-3.889008 2,-5c3.186996,-3.46701 7.604004,-4.378006 8,-8c0.503998,-4.616005 -3.475998,-7.821007 -7,-12c-5.41301,1.586998 -11.579002,2.420998 -19,2c-0.939003,-3.728004 -3.777,-5.556 -3,-11c4.109993,-4.062004 14.507996,-0.694 17,-4c-1.672005,-4.995003 -9.478004,-3.855003 -8,-12c8.334991,-1.669006 6.994995,6.338997 13,7c1.377991,5.288994 5.009995,8.323997 8,12c-0.539001,6.205994 3.610992,7.722 4,13c22.929001,-10.071007 39.85199,-26.148003 65,-34c14.203003,8.432999 33.994003,9.841995 55,12c10.621002,1.090996 22.208984,2.897995 33,2c1.707001,-0.142006 3.917999,-1.795006 6,-2c6.085999,-0.598007 17.368988,-0.287003 21,-7c-6.51001,-0.964005 -12.227997,3.661995 -19,5c-1.825989,0.361 -3.673004,-1.012001 -4,-1c-1.845001,0.066994 -3.584015,1.890999 -5,2c-31.834015,2.453995 -59.764008,-5.277 -82,-12c-7.92601,-6.436005 -12.878998,-15.75 -20,-23c-1.694,-1.725006 -3.960999,-4.237003 -7,-4.000004c-5.169006,-14.164001 -17.835999,-20.831001 -26,-32c-1.360001,-6.027 1.975998,-7.358 2,-12c24.602997,-3.38 49.400009,-14.37 79,-16c1.845993,3.487 4.108994,6.558 7,9c15.128998,-1.379 28.770996,-9.043 44,-11c12.615997,-1.621 25.225006,-1.252 30,11zm-76,10c-3.255005,-3.079 -7.488007,-5.177999 -11,-8c-17.522003,1.478001 -30.320999,7.679001 -48,9c-1.218002,3.782 -8.790009,1.210001 -9,6c16.429993,1.282 35.219009,-2.667 51,-4c12.645996,-1.067999 25.591003,-0.805 34,6c1.182983,6.484001 0.27301,15.060001 5,18c6.434998,-4.231998 16.640991,-4.692001 19,-13c0.365997,-13.638 16.449982,-16.875999 21,-23c-16.625,-0.000999 -45.274994,7.748001 -62,9zm117,-5c-6.737,0.134001 -15.304016,0.973 -20,2c-1.694,0.371 -3.156006,2.365 -5,3c-3.174011,1.094 -7.753998,0.066999 -11,1c-1.619019,0.465 -2.899994,2.205999 -5,3c-6.604004,2.499001 -13.515991,3.677999 -19,6c-5.428009,-0.094999 -12.019012,-1.351999 -10,6c8.397003,0.396999 10.929993,-5.07 20,-4c1.951996,3.381001 5.02301,5.644001 7,9c9.098999,1.369999 14.48999,-1.797001 20,-3c3.875,-0.846001 8.161011,-0.259998 11,-1c3.520996,-0.917999 6.789001,-3.848999 10,-5c3.505005,-1.256001 7.574005,-1.148998 11,-3c2.675995,-1.445 6.131989,-3.931 7,-7c-0.843994,-7.906 -9.881989,-7.122 -16,-7zm-153,20c-9.908997,0.483002 -20.365997,-4.056 -27,2c6.563004,5.77 11.526001,13.140999 20,17c-0.074997,1.742001 0.222992,3.110001 1,4c15.391998,7.944004 20.203995,31.794003 43,29.000004c-9.887009,-7.780006 -15.900009,-19.433006 -25,-28.000004c-1.296005,-5.966 -5.104004,-9.105999 -4,-15c0.983002,-5.25 7.322998,-6.730999 9,-11c-6.223999,0.125 -11.371994,1.726002 -17,2zm20,14c7.403992,3.911999 23.156982,1.98 30,-1c-1.688995,-2.311001 -2.591003,-5.409 -2,-10c-12.285995,-1.004002 -19.510986,2.592999 -28,11zm67,-3c-0.902008,3.764999 -5.197998,4.135002 -10,4c-10.770996,10.229 -29.276001,12.724003 -48,15.000004c6.561996,8.104996 17.402985,11.929993 18,26c24.165009,1.727997 42.819,2.800995 62,-4c12.566986,-13.433006 25.523987,-26.475002 38,-40.000004c-14.983002,2.816002 -32.123993,5.526001 -47,1c-9.117004,5.549 -8.597992,20.736004 -17,27.000004c0.356995,5.356995 -2.48999,7.509995 -8,7c0.029999,-12.637001 10.005981,-15.327003 11,-27.000004c4.320007,-0.68 3.895996,-6.104 6,-9c-1.666992,0 -3.333008,0 -5,0zm51,40.000004c8.833008,3.042 19.792999,0.151993 25,-1c3.777985,-0.836006 6.884003,-1.194 10,-2c7.248993,-1.875 17.11499,-1.372002 20,-8c-18.317993,-0.282005 -42.837982,1.801994 -55,11zm-313.999992,17c0.749001,-6.599007 3.781998,-16.198006 3,-21c-2.924,4.241997 -14.326002,18.077995 -3,21zm342.999992,43c-0.951996,-0.917999 -0.100006,-2.983002 -1,-4c-0.578003,-0.653 -3.337006,-0.419998 -4,-1c-1.470001,-1.283997 -0.929016,-3.057007 -2,-4c-2.763,-2.432999 -6.690002,-3.307007 -10,-6c-2.34201,-1.904999 -3.462006,-5.161003 -6,-7c-1.502014,-1.088005 -5.503998,-1.999001 -9,-4c-1.436005,-0.821007 -2.381989,-2 -4,-3c-1.270996,-0.786003 -3.838989,-1.145004 -5,-2c-4.867004,-3.584007 -8.121002,-10.830002 -13,-11c-3.670013,-0.127007 -7.149994,4.759995 -11,6c-14.252014,4.590996 -35.569,1.007996 -55,0c-21.813004,-1.131004 -36.439987,-5.433006 -50,-12c-3.395004,2.604996 -6.574005,5.425995 -11,7c-6.540009,8.459999 -16.249008,13.750999 -22,23c-5.380005,-0.380005 -4.833008,5.166992 -10,5c-11.733002,11.266998 -21.628006,24.371994 -34,35c-1.020004,1.313995 -0.980011,3.685989 -2,5c-6.699005,4.55899 -11.074005,12.100998 -15,18c-6.088005,9.147003 -13.735001,19.343002 -20,27c-4.400002,5.377991 -7.967003,9.735992 -11,16c1.463997,0.869995 3.168999,1.496994 3,4c-2.290001,7.043991 -6.705002,11.96199 -11,16.999985c0,2.333008 0,4.667023 0,7c-2.892006,0.44101 -4.559006,2.108002 -5,5c0.433998,9.969025 -2.757004,11.94101 0,20c-3.328003,3.33902 -3.635002,9.697998 -6,14c5.190994,5.81601 21.420998,5.902008 16,19c-5.772003,0.522003 -14.795006,-3.902985 -17,2c6.073997,7.812012 19.571999,2.347015 21,14c-6.766006,1.063019 -12.928001,-4.816986 -17,-6c-10.805004,-3.138977 -23.604004,-2.393982 -22.000004,-15c9.406002,-2.664001 16.894001,1.365997 26.000004,-3c-10.048004,-6.221985 -31.603004,-0.302979 -28.000004,-17c2.237999,-10.372986 19.809002,-12.957001 23.000004,-24c-8.395004,3.819 -23.027004,12.689026 -31.000004,24c-6.673,9.46701 -8.257999,23.677002 -5,36c0.384998,1.455017 -0.617001,3.641998 0,5c3.796001,8.351013 13.632,11.278015 20,19c10.071999,0.792999 18.508999,1.979004 27.000004,2c-0.608002,4.059021 -3.068001,6.265015 -2,12c6.604996,5.062012 6.176994,17.156006 16,19c0.328995,2.338013 1.201996,4.132019 2,6c2.321999,1.345001 5.677994,1.654999 8,3c0.133995,4.532013 2.446999,6.887024 3,11c6.842995,4.440002 16.584,9.649017 22,14c5.179001,4.160004 11.677994,6.119019 17,9c1.972,1.067017 3.90799,3.906006 6,5c4.520996,2.362 11.020996,4.115021 15,6c1.513992,0.71701 2.901001,2.550018 4,3c2.772995,1.13501 5.946991,-0.003998 9,1c1.128998,0.371002 1.789993,2.456024 3,3c15.563004,7.002014 29.80899,8.815002 48,10c7.453995,6.463013 18.164993,3.14502 27,4c1.307983,0.127014 0.927002,1.657013 2,2c0.162994,0.052002 4.583984,-0.03598 5,0c9.294006,0.799011 16.669006,-1.333984 26,-2c3.277985,-0.233978 6.710999,0.545013 10,0c4.069,-0.673981 7.888,-3.263 12,-4c2.437988,-0.437988 5.703003,0.266022 8,0c13.524994,-1.561981 24.928986,-9.565002 37,-11c3.640991,-4.358978 9.184998,-6.815002 16,-8c2.255005,-2.645996 4.971985,-4.093994 8,-6c2.145996,-1.350983 8.544006,-3.850983 10,-5c1.178986,-0.931 1.705994,-3.772003 3,-5c6.181,-5.86499 21.220001,-16.302979 21,-22c-0.057007,-1.483002 1.638,-0.299988 2,-1c1.860992,-3.59198 4.11499,-8.412994 5,-12c3.352997,-1.313995 4.153992,-5.178986 7,-7c-0.489014,-6.474976 4.394989,-10.22998 6,-13c0.727997,-1.255981 -0.597992,-3.664978 0,-5c0.243011,-0.543976 2.604004,-0.977997 3,-2c1.065002,-2.747986 1.773987,-7.116974 3,-11c2.350006,-7.442993 5.264008,-12.716003 6,-20c0.600006,-5.937988 1.695007,-9.673981 2,-13c1.608002,-17.562988 -0.946014,-31.707001 -2,-46c-0.889008,-12.04599 -2.415009,-16.71698 -5,-24.999985c-1.445007,-4.630005 -0.902008,-9.740997 -6,-11c-1.813019,2.854004 -6.109009,3.223999 -10,4c-1.671997,-1.662003 -4.049011,-2.617996 -4,-6c2.390991,-6.276001 7.583984,-9.749008 13,-13c4.402008,0.033997 6.273987,3.791992 8,-1c-8.970001,-6.987 -14.953003,3.675995 -23,4c-0.30899,-11.641998 11.531982,-11.13501 15,-19c-12.380005,-6.62001 -18.421997,14.567993 -30,12c2.221985,-15.151001 24.300995,-15.645996 25,-29c-10.497009,-0.91301 -14.212006,12.938004 -28,12c-0.239014,-1.427002 -1.645996,-1.686996 -2,-3c-0.39801,-10.39801 8.841003,-11.160004 11,-19c-2.867004,-6.466003 -9.963013,-8.70401 -12,-16c-5.549988,-5.878006 -12.984985,-10.197998 -19,-16zm40,30c-0.753998,8.246002 -8.451996,9.547989 -12,15c7.356995,-0.755005 17.980988,-6.602997 19,-17c-3.29599,-3.03801 -5.785004,-6.880997 -13,-6c-1.440979,6.106995 2.834015,6.498993 6,8zm-292,290.999985c4.013,1.554993 5.845001,4.042999 10,1c2.813004,-10.733978 -14.325996,-9.622986 -10,-1zm20,8c3.417999,-1.248993 4.664001,-4.670013 4,-10c-4.077011,0.743011 -3.443008,-3.223999 -8,-2c-5.970001,5.694 -4.595993,9.890015 4,12zm190,-4c3.988007,-0.988007 3.011993,2.988007 7,2c0.013,-1.987 2.729004,-1.270996 2,-4c-2.140991,-3.230988 -10.438995,-6.921997 -9,2zm-175,6c-0.419998,-4.087006 3.291992,-4.041992 2,-9c-8.435989,-7.597992 -18.526993,12.548004 -2,9zm5,1c4.623001,3.110016 9.888,-0.40799 10,-5c-3.258987,-5.135986 -10.636993,-2.044983 -10,5zm159,-7c-1.420013,2.958008 4.638,9.214996 8,5c-0.746002,-3.384003 -4.385986,-7.636993 -8,-5zm-145,10c5.016998,0.68399 6.261993,-2.404999 7,-6c-1.479004,-0.520996 -2.520996,-1.479004 -4,-2c-0.741989,2.925018 -4.21199,3.121002 -3,8zm114,-5c-0.631989,4.489014 4.878998,6.391998 8,4c0,-1.333008 0,-2.666992 0,-4c-2.346985,-2.362 -4.912994,0.162018 -8,0zm-149,4c0.078003,-3.743988 -3.921997,-3.411011 -7,-4c-2.492996,2.60202 3.887009,7.005005 7,4zm168,-2c1.096008,3.570007 3.429993,5.903992 7,7c8.252014,-2.500977 -1.687988,-12.440979 -7,-7zm30,0c1.773987,3.893005 3.970001,7.364014 9,8c0.167999,-1.165009 1.580994,-1.085999 3,-1c-1.559998,-4.358978 -6.46698,-9.853973 -12,-7zm-83,4c3.11499,3.552002 8.139984,5.192993 12,8c0.932007,-2.402008 4.018982,-2.647003 3,-7c-4.605988,-0.921997 -11.563995,-7.773987 -15,-1zm25,-1c0.660004,4.674011 3.325989,7.339996 8,8c2.403015,-5.230988 -2.225983,-10.690002 -8,-8zm-136,1c0.104004,3.895996 4.343002,3.657013 8,4c-0.042999,-1.376984 0.470993,-2.195984 1,-3c-2.809998,-1.388977 -5.748993,-2.643982 -9,-1zm187,7c3.190002,-0.593994 3.092987,1.877014 5,0c1.923004,-2.040985 -1.789001,-4.087006 -2,-7c-1.666992,0 -3.333008,0 -5,0c-0.988007,3.988007 2.988007,3.012024 2,7zm-174,2c3.056,-0.722992 3.643997,1.022003 6,1c0.384995,-2.61499 3.207001,-2.794006 2,-7c-3.978989,-2.73999 -9.723999,-0.138 -8,6zm141,-6c-1.470001,2.792999 5.449982,9.227997 10,6c0.089996,-5.09198 -5.384979,-8.819977 -10,-6zm-130,7c3.332001,4.158997 9.373993,0.431 8,-6c-4.722992,-0.056 -5.682999,3.650024 -8,6zm14,1c0.72699,-1.686005 5.300003,-4.593994 2,-7c-0.72699,1.686005 -5.299988,4.594025 -2,7zm138,-5c-0.929016,5.342987 4.109009,8.649994 8,6c0.855011,-5.268982 -4.889984,-7.871002 -8,-6zm-49,3c1.269989,3.730011 3.618011,6.381989 9,6c1.645996,-5.022003 -1.921997,-8.022003 -7,-9c-0.096008,1.571014 0.134003,3.468018 -2,3zm-165.999992,3c0.419998,3.579987 3.187996,4.812012 7,5c1.325996,-1.674011 2.649002,-3.351013 2,-7c-4.307999,-1.140991 -7.347,-3.234985 -9,2zm15.999992,-1c3.244995,0.421997 3.175995,4.157013 6,5c0.167999,-1.165009 1.580994,-1.085999 3,-1c-0.074997,-1.742004 0.222992,-3.109985 1,-4c-2.405991,-2.184998 -8.72699,-4.953979 -10,0zm228,0c1.234985,3.097992 2.812988,5.854004 8,5c-0.235992,-4.431 -3.067017,-6.265991 -6,-8c-0.091003,1.576019 -2.550995,0.78302 -2,3zm-50,5c-0.348999,-4.316986 -2.683014,-6.651001 -7,-7c-3.854004,4.650024 3.832001,9.371002 7,7zm71,44c5.466003,-2.377014 12.832001,-7.054993 16,-10c3.115997,-2.896973 2.123993,-2.680969 5,-7c0.44101,-0.663025 1.453003,-1.179993 2,-2c1.696991,-2.546021 0.898987,-3.22699 2,-6c0.277985,-0.700989 2.681,-1.244995 3,-2c3.936005,-9.298004 2.098999,-19.321991 -3,-24c-10.181,1.556 -13.507996,10.579987 -18,17c-2.304016,3.291992 -8.098999,9.919006 -8,13c0.020996,0.682983 2.38501,0.971008 2,3c-0.709015,3.744019 -3.498016,8.573975 -4,13c-5.027008,3.640015 -11.19101,6.142029 -13,13c3.184998,0.481995 4.184998,3.14801 8,3c2.63501,-3.697998 6.700012,-5.966003 8,-11zm-236,-44c1.444,1.222992 1.516998,3.81601 3,5c6.968002,1.358002 10.121994,-5.497986 8,-10c-4.67099,0.662018 -8.779999,1.887024 -11,5zm175,0c1.382996,1.617004 4.756989,1.243011 4,5c1.666992,0 3.333008,0 5,0c1.832001,-7.052002 -7.824005,-12.707001 -9,-5zm31,-3c0.049988,3.950012 2.049988,5.950012 6,6c0.056,-3.912994 -3.649994,-7.618988 -6,-6zm-192,11c6.04599,1.903992 9.959991,-3.014984 10,-10c-6.722,-4.254974 -11.982986,5.550018 -10,10zm-23,-5c-1.001007,-3.677002 -4.763,-3.670013 -8,-2c-9.726997,5.018005 9.950012,9.163025 8,2zm158,-2c-0.394989,6.727997 5.056,7.610992 9,10c-0.744995,-3.078003 2.744995,-1.921997 2,-5c-5.015991,-0.473999 -5.794006,-7.703979 -11,-5zm-124,8c5.927994,3.470032 9.048996,-1.31601 11,-7c-6.493988,-3.519989 -8.018997,3.957001 -11,7zm170,-4c3.369995,0.29599 2.899994,4.43399 6,5c0.221008,-0.778992 0.837006,-1.162994 2,-1c0.674011,-5.007996 -2.670013,-5.996002 -5,-8c-0.294006,2.039001 -2.705994,1.960999 -3,4zm-230.999992,3c2.042999,0.957001 3.957001,2.042999 6,3c2.899002,-2.040985 2.016998,-6.631012 0,-9c-1.333,0 -2.667,0 -4,0c-1.388,1.278015 -0.612,4.722015 -2,6zm204.999992,3c3.988007,0.549011 3.011993,0.549011 7,0c0.766998,-4.766998 -3.410004,-4.589996 -6,-6c-2.095001,2.442017 -1.429993,2.131012 -1,6zm-177,1c2.203003,1.463989 4.294998,3.039001 8,3c1.325989,-1.674011 2.649002,-3.351013 2,-7c-3.190002,0.856995 -3.093002,-1.574005 -5,-2c-1.034988,2.632019 -3.964996,3.368011 -5,6zm214,2c0.029999,-0.835022 3.432983,5.533997 4,6c1.35199,1.111023 5.59201,1.499023 7,2c3.30899,-4.690979 4.718994,-11.281006 9,-15c-7.132996,-2.635986 -19.794006,1.396027 -20,7zm-11,1c-0.72699,-4.27301 -2.63501,-7.36499 -7,-8c-5.040985,3.984009 3.085999,12.721008 7,8zm-221.999992,0c2.322998,0.677002 2.677002,3.322998 5,4c1.211998,-2.455017 4.659996,-2.674011 5,-6c-2.264,-5.445984 -9.781998,-4.578979 -10,2zm-17,1c1.699997,1.96698 3.068001,4.265991 6,5c-0.113998,-3.447998 4.113998,-2.552002 4,-6c-1.603004,-1.72998 -3.737,-2.929993 -6,-4c-0.677002,2.322998 -3.322998,2.677002 -4,5zm48.999992,3c2.825989,-0.825989 2.591003,1.408997 5,1c2.421997,-1.577026 4.421997,-3.577026 6,-6c-4.128998,-3.014984 -11.702988,-2.14798 -11,5zm163,0c0,-1.666992 0,-3.333008 0,-5c-1.313019,-1.02002 -3.687012,-0.97998 -5,-2c-4.16098,3.186035 0.436005,6.846985 5,7zm16,4c0.238983,-1.427002 1.645996,-1.687012 2,-3c-2.950989,-1.382019 -4.049011,-4.617981 -7,-6c-1.432007,4.549988 1.113007,7.247986 5,9zm-166,-1c4.886993,1.768982 7.37999,-0.981995 9,-5c-3.830994,-4.657959 -8.270996,0.671997 -9,5zm-34.999992,0c1.247002,2.086975 3.922997,2.742981 4.999992,5c3.570999,-1.096008 5.904007,-3.429993 7,-7c-4.519989,-4.032959 -9.94799,-5.195007 -11.999992,2zm-16,-2c-2.413002,5.078003 -1.159004,8.645996 5,7c-0.724998,-3.059021 1.724998,-2.940979 1,-6c-2.442001,-2.094971 -2.131004,-1.429993 -6,-1zm-16,5c1.306999,1.406006 5.292999,3.595032 6,0c-3.160004,0.492981 -0.371002,-4.961975 -4,-4c0.728996,2.729004 -1.987,2.013 -2,4zm218.999992,-1c1.406006,3.593994 3.356995,6.643005 8,7c0.69101,-6.479004 -4.14798,-10.674988 -8,-7zm-172,6c4.084,2.161011 8.269989,0.036987 9,-4c-2.838989,-4.950012 -8.965988,-1.727966 -9,4zm-23.999992,2c3.055,3.151978 9.569,4.182983 11,-1c-2.179001,-4.786011 -10.078003,-4.971985 -11,1zm35.999992,0c3.362,2.632019 8.155991,0.013977 9,-3c-2.776993,-3.752014 -8.347,-1.065002 -9,3zm-48.999992,6c-0.598999,-2.598999 0.401001,-3.598999 3,-3c0.131996,-2.465027 0.151001,-4.817993 -1,-6c-1,0 -2,0 -3,0c-2.958,3.179993 -3.644005,7.416992 1,9zm25.999992,1c4.076996,-0.742981 3.442993,3.223022 8,2c0.575989,-2.091003 2.479004,-2.854004 2,-6c-3.707993,-2.468994 -8.97699,0.608032 -10,4zm-21.999992,4c1.220001,0.112976 2.367996,0.299011 2,2c4.563995,0.896973 5.667999,-1.664978 9,-2c0.275002,-4.275024 -2.903,-5.098022 -5,-7c-2.241005,2.093018 -4.888,3.778015 -6,7zm36.999992,-3c1.272995,1.362 4.897995,1.544983 5,-1c-1.272995,-1.362 -4.897995,-1.544983 -5,1zm-21.999992,5c0,1 0,2 0,3c3.807999,0.474976 6.241997,-0.424988 6.999992,-3c-1.333992,-1.427002 -5.664993,-1.427002 -6.999992,0zm-2,11c-3.362,0.088989 -8.008003,-4.812012 -10,0c3.740997,6.59198 7.155998,13.51001 17,14c1.786995,-5.078979 -7.160004,-7.292969 -7,-14zm236.999992,21c10.790009,1.789978 12.764008,-5.236023 15,-12c-7.302002,-12.411011 -23.919006,2.393005 -15,12z" clip-rule="evenodd" fill-rule="evenodd"/>
  </g>
 </g>
</svg>